<svg width="82" height="97" viewBox="0 0 82 97" fill="none" xmlns="http://www.w3.org/2000/svg">
<path d="M20.4787 27.348C20.3764 26.3168 19.9375 25.5156 19.1619 24.9446C18.3864 24.3736 17.3338 24.0881 16.0043 24.0881C15.1009 24.0881 14.3381 24.2159 13.7159 24.4716C13.0938 24.7188 12.6165 25.0639 12.2841 25.5071C11.9602 25.9503 11.7983 26.4531 11.7983 27.0156C11.7813 27.4844 11.8793 27.8935 12.0923 28.2429C12.3139 28.5923 12.6165 28.8949 13 29.1506C13.3835 29.3977 13.8267 29.6151 14.3295 29.8026C14.8324 29.9815 15.3693 30.1349 15.9403 30.2628L18.2926 30.8253C19.4347 31.081 20.483 31.4219 21.4375 31.848C22.392 32.2741 23.2188 32.7983 23.9176 33.4205C24.6165 34.0426 25.1577 34.7756 25.5412 35.6193C25.9332 36.4631 26.1335 37.4304 26.142 38.5213C26.1335 40.1236 25.7244 41.5128 24.9148 42.6889C24.1136 43.8565 22.9545 44.7642 21.4375 45.4119C19.929 46.0511 18.1094 46.3707 15.9787 46.3707C13.8651 46.3707 12.0241 46.0469 10.456 45.3991C8.89631 44.7514 7.67756 43.7926 6.79972 42.5227C5.9304 41.2443 5.47443 39.6634 5.43182 37.7798H10.7884C10.848 38.6577 11.0994 39.3906 11.5426 39.9787C11.9943 40.5582 12.5952 40.9972 13.3452 41.2955C14.1037 41.5852 14.9602 41.7301 15.9148 41.7301C16.8523 41.7301 17.6662 41.5937 18.3565 41.321C19.0554 41.0483 19.5966 40.669 19.9801 40.1832C20.3636 39.6974 20.5554 39.1392 20.5554 38.5085C20.5554 37.9205 20.3807 37.4261 20.0312 37.0256C19.6903 36.625 19.1875 36.2841 18.5227 36.0028C17.8665 35.7216 17.0611 35.4659 16.1065 35.2358L13.2557 34.5199C11.0483 33.983 9.3054 33.1435 8.02699 32.0014C6.74858 30.8594 6.11364 29.321 6.12216 27.3864C6.11364 25.8011 6.53551 24.4162 7.38778 23.2315C8.24858 22.0469 9.42898 21.1222 10.929 20.4574C12.429 19.7926 14.1335 19.4602 16.0426 19.4602C17.9858 19.4602 19.6818 19.7926 21.1307 20.4574C22.5881 21.1222 23.7216 22.0469 24.5312 23.2315C25.3409 24.4162 25.7585 25.7884 25.7841 27.348H20.4787Z" fill="#CA88FF"/>
<path d="M2.27557 51.8182H9.10227L16.3125 69.4091H16.6193L23.8295 51.8182H30.6562V78H25.2869V60.9588H25.0696L18.294 77.8722H14.6378L7.86222 60.8949H7.64489V78H2.27557V51.8182Z" fill="#1AC3FF"/>
<path d="M38.0568 78V19.8182H77.2614V29.9602H50.358V43.8239H75.2443V53.9659H50.358V67.858H77.375V78H38.0568Z" fill="#006FFF"/>
<path d="M43.9343 47.6914H42.8455C42.8256 47.5505 42.785 47.4254 42.7237 47.3161C42.6624 47.205 42.5837 47.1106 42.4876 47.0327C42.3915 46.9548 42.2804 46.8951 42.1545 46.8537C42.0302 46.8123 41.8951 46.7915 41.7493 46.7915C41.4858 46.7915 41.2563 46.857 41.0607 46.9879C40.8652 47.1172 40.7135 47.3061 40.6058 47.5547C40.4981 47.8016 40.4442 48.1016 40.4442 48.4545C40.4442 48.8175 40.4981 49.1224 40.6058 49.3693C40.7152 49.6162 40.8677 49.8027 41.0632 49.9286C41.2588 50.0546 41.485 50.1175 41.7418 50.1175C41.886 50.1175 42.0194 50.0985 42.142 50.0604C42.2663 50.0223 42.3765 49.9667 42.4727 49.8938C42.5688 49.8192 42.6483 49.7289 42.7113 49.6229C42.7759 49.5168 42.8207 49.3958 42.8455 49.2599L43.9343 49.2649C43.9061 49.4986 43.8357 49.724 43.723 49.9411C43.612 50.1565 43.462 50.3496 43.2731 50.5202C43.0858 50.6893 42.8621 50.8235 42.6019 50.9229C42.3434 51.0207 42.0509 51.0696 41.7244 51.0696C41.2704 51.0696 40.8643 50.9669 40.5064 50.7614C40.1501 50.5559 39.8684 50.2584 39.6612 49.869C39.4557 49.4795 39.353 49.008 39.353 48.4545C39.353 47.8994 39.4574 47.4271 39.6662 47.0376C39.875 46.6482 40.1584 46.3516 40.5163 46.1477C40.8743 45.9422 41.277 45.8395 41.7244 45.8395C42.0194 45.8395 42.2929 45.8809 42.5447 45.9638C42.7983 46.0466 43.0228 46.1676 43.2184 46.3267C43.4139 46.4841 43.573 46.6772 43.6957 46.9059C43.82 47.1346 43.8995 47.3964 43.9343 47.6914ZM49.3844 48.4545C49.3844 49.0097 49.2792 49.482 49.0687 49.8714C48.8599 50.2609 48.5749 50.5584 48.2136 50.7638C47.854 50.9677 47.4496 51.0696 47.0005 51.0696C46.5481 51.0696 46.1421 50.9669 45.7825 50.7614C45.4229 50.5559 45.1387 50.2584 44.9299 49.869C44.7211 49.4795 44.6167 49.008 44.6167 48.4545C44.6167 47.8994 44.7211 47.4271 44.9299 47.0376C45.1387 46.6482 45.4229 46.3516 45.7825 46.1477C46.1421 45.9422 46.5481 45.8395 47.0005 45.8395C47.4496 45.8395 47.854 45.9422 48.2136 46.1477C48.5749 46.3516 48.8599 46.6482 49.0687 47.0376C49.2792 47.4271 49.3844 47.8994 49.3844 48.4545ZM48.2931 48.4545C48.2931 48.0949 48.2393 47.7917 48.1316 47.5447C48.0255 47.2978 47.8755 47.1106 47.6816 46.983C47.4877 46.8554 47.2607 46.7915 47.0005 46.7915C46.7404 46.7915 46.5133 46.8554 46.3194 46.983C46.1255 47.1106 45.9747 47.2978 45.867 47.5447C45.7609 47.7917 45.7079 48.0949 45.7079 48.4545C45.7079 48.8142 45.7609 49.1174 45.867 49.3643C45.9747 49.6113 46.1255 49.7985 46.3194 49.9261C46.5133 50.0537 46.7404 50.1175 47.0005 50.1175C47.2607 50.1175 47.4877 50.0537 47.6816 49.9261C47.8755 49.7985 48.0255 49.6113 48.1316 49.3643C48.2393 49.1174 48.2931 48.8142 48.2931 48.4545ZM54.4399 45.9091V51H53.5102L51.2954 47.7958H51.2581V51H50.1817V45.9091H51.1263L53.3238 49.1108H53.3685V45.9091H54.4399ZM59.5874 45.9091V51H58.6577L56.4428 47.7958H56.4055V51H55.3292V45.9091H56.2738L58.4712 49.1108H58.516V45.9091H59.5874ZM60.4767 51V45.9091H63.907V46.7965H61.553V48.0096H63.7306V48.897H61.553V50.1126H63.917V51H60.4767ZM69.2546 47.6914H68.1658C68.146 47.5505 68.1054 47.4254 68.044 47.3161C67.9827 47.205 67.904 47.1106 67.8079 47.0327C67.7118 46.9548 67.6007 46.8951 67.4748 46.8537C67.3505 46.8123 67.2154 46.7915 67.0696 46.7915C66.8061 46.7915 66.5766 46.857 66.381 46.9879C66.1855 47.1172 66.0339 47.3061 65.9261 47.5547C65.8184 47.8016 65.7646 48.1016 65.7646 48.4545C65.7646 48.8175 65.8184 49.1224 65.9261 49.3693C66.0355 49.6162 66.188 49.8027 66.3835 49.9286C66.5791 50.0546 66.8053 50.1175 67.0621 50.1175C67.2063 50.1175 67.3397 50.0985 67.4624 50.0604C67.5866 50.0223 67.6969 49.9667 67.793 49.8938C67.8891 49.8192 67.9686 49.7289 68.0316 49.6229C68.0962 49.5168 68.141 49.3958 68.1658 49.2599L69.2546 49.2649C69.2264 49.4986 69.156 49.724 69.0433 49.9411C68.9323 50.1565 68.7823 50.3496 68.5934 50.5202C68.4061 50.6893 68.1824 50.8235 67.9222 50.9229C67.6637 51.0207 67.3712 51.0696 67.0447 51.0696C66.5907 51.0696 66.1847 50.9669 65.8267 50.7614C65.4704 50.5559 65.1887 50.2584 64.9815 49.869C64.776 49.4795 64.6733 49.008 64.6733 48.4545C64.6733 47.8994 64.7777 47.4271 64.9865 47.0376C65.1953 46.6482 65.4787 46.3516 65.8366 46.1477C66.1946 45.9422 66.5973 45.8395 67.0447 45.8395C67.3397 45.8395 67.6132 45.8809 67.8651 45.9638C68.1186 46.0466 68.3432 46.1676 68.5387 46.3267C68.7343 46.4841 68.8933 46.6772 69.016 46.9059C69.1403 47.1346 69.2198 47.3964 69.2546 47.6914ZM69.8326 46.7965V45.9091H74.0137V46.7965H72.4551V51H71.3912V46.7965H69.8326Z" fill="white"/>
</svg>
